<?xml version="1.0" encoding="utf-8"?>
<!-- Generator: Adobe Illustrator 16.0.0, SVG Export Plug-In . SVG Version: 6.00 Build 0)  -->
<!DOCTYPE svg PUBLIC "-//W3C//DTD SVG 1.1//EN" "http://www.w3.org/Graphics/SVG/1.1/DTD/svg11.dtd">
<svg version="1.1" id="Layer_1" xmlns="http://www.w3.org/2000/svg" xmlns:xlink="http://www.w3.org/1999/xlink" x="0px" y="0px"
	 width="113px" height="30px" viewBox="0 0 113 30" enable-background="new 0 0 113 30" xml:space="preserve">
<g>
	<polygon fill="#FFFFFF" points="64.395,12.927 64.395,10.958 57.375,10.958 57.375,21.084 64.395,21.084 64.395,19.029 
		60.219,19.029 60.219,16.786 63.691,16.786 63.691,14.819 60.219,14.819 60.219,12.927 	"/>
	<polygon fill="#FFFFFF" points="76.777,19.084 72.391,19.084 72.391,10.958 69.514,10.958 69.514,21.084 76.777,21.084 	"/>
	<g>
		<path fill="#FFFFFF" d="M99.952,14.817c-1.942-0.438-2.622-0.487-2.622-1.26c0-0.719,0.959-0.94,1.516-0.94
			c0.897,0,1.952,0.208,3.028,0.763l0.784-1.864c-1.104-0.604-2.52-0.854-3.883-0.854c-2.68,0-4.475,1.087-4.549,3.203
			c-0.078,1.931,1.492,2.653,2.938,2.953c1.391,0.287,2.801,0.534,2.83,1.359c0.026,0.764-0.658,1.089-1.952,1.089
			c-1.2,0-2.313-0.385-3.452-0.86l-0.664,2.024c1.307,0.557,2.637,0.863,4.006,0.863c1.902,0,3.29-0.297,4.313-1.257
			c0.709-0.658,0.941-1.455,0.941-2.211C103.186,16.225,102.189,15.322,99.952,14.817"/>
		<polygon fill="#FFFFFF" points="53.294,12.957 53.294,10.958 44.462,10.958 44.462,12.957 47.445,12.957 47.445,21.084 
			50.306,21.084 50.306,12.957 		"/>
		<path fill="#FFFFFF" d="M86.594,10.958v6.434c0,0.504,0,0.643-0.031,0.838c-0.091,0.613-0.687,0.97-1.635,0.981
			c-0.701-0.012-1.215-0.218-1.455-0.584c-0.121-0.189-0.18-0.528-0.18-1.068v-6.601H80.31v6.979c0,0.966,0.13,1.402,0.565,1.954
			c0.721,0.903,2.125,1.376,4.06,1.376h0.062h0.043c2.59,0,3.926-1.011,4.313-1.955c0.193-0.458,0.209-0.677,0.209-1.601v-6.753
			H86.594"/>
		<path fill="#FFFFFF" d="M45.811,8.186l-16.735,3.332v1.166l0.054-0.014c11.055-2.687,16.681-4.303,16.727-4.314
			c0.062-0.017,0.084-0.064,0.075-0.105C45.923,8.206,45.878,8.172,45.811,8.186"/>
		<path fill="#FFFFFF" d="M31.766,9.117c0.259-0.166,0.332-0.064,0.257,0.125c-0.124,0.3-0.689,2.11-4.902,5.569
			c-1.099,0.901-1.882,1.407-3.465,2.345C26.249,13.521,30.033,10.242,31.766,9.117 M32.205,7.867
			c-0.815,0.046-2.321,1.25-3.147,1.967c-3.293,2.848-5.741,5.467-7.521,8.209c-3.711,1.985-8.441,4.029-13.139,5.626l-0.114,0.04
			l-0.903,2.433l0.516-0.198c2.989-1.141,7.976-3.276,12.498-5.657c-0.255,0.68-0.383,1.305-0.383,1.873
			c0,0.426,0.07,0.82,0.213,1.18c0.285,0.715,0.845,1.258,1.623,1.567c1.156,0.46,2.735,0.47,4.536-0.075
			c4.603-1.396,10.06-5.677,11.248-6.527l0.045-0.033c0.045-0.033,0.05-0.086,0.029-0.118c-0.026-0.04-0.081-0.048-0.125-0.022
			l-0.059,0.036c-1.276,0.763-7.472,4.442-11.499,5.522c-2.052,0.552-3.616,0.251-4.205-0.575c-0.206-0.281-0.304-0.638-0.304-1.055
			c0-0.812,0.381-1.845,1.119-2.993c0.677-0.387,1.309-0.764,1.878-1.122c3.931-2.207,8.457-6.5,8.65-9.121
			c0.001-0.018,0.001-0.039,0.001-0.059c0-0.226-0.098-0.459-0.27-0.632C32.709,7.944,32.466,7.849,32.205,7.867"/>
		<polygon fill="#FFFFFF" points="29.021,11.529 11.416,15.313 10.735,17.145 29.076,12.682 29.105,12.677 29.105,11.51 		"/>
		<path fill="#FFFFFF" d="M104.637,10.94c0.535,0,0.982,0.423,0.982,0.976c0,0.563-0.447,0.985-0.982,0.985
			c-0.537,0-0.988-0.422-0.988-0.985C103.648,11.363,104.1,10.94,104.637,10.94 M104.637,12.758c0.453,0,0.805-0.361,0.805-0.842
			c0-0.471-0.352-0.832-0.805-0.832c-0.459,0-0.81,0.361-0.81,0.832C103.827,12.396,104.178,12.758,104.637,12.758 M104.254,11.347
			h0.441c0.273,0,0.402,0.108,0.402,0.327c0,0.208-0.132,0.294-0.303,0.313l0.329,0.507h-0.191L104.62,12h-0.188v0.493h-0.178
			V11.347z M104.432,11.855h0.186c0.158,0,0.301-0.008,0.301-0.188c0-0.152-0.129-0.176-0.25-0.176h-0.236V11.855z"/>
	</g>
</g>
</svg>
