<?xml version="1.0" encoding="utf-8"?>
<!-- Generator: Adobe Illustrator 16.0.0, SVG Export Plug-In . SVG Version: 6.00 Build 0)  -->
<!DOCTYPE svg PUBLIC "-//W3C//DTD SVG 1.1//EN" "http://www.w3.org/Graphics/SVG/1.1/DTD/svg11.dtd">
<svg version="1.1" id="Layer_1" xmlns="http://www.w3.org/2000/svg" xmlns:xlink="http://www.w3.org/1999/xlink" x="0px" y="0px"
	 width="177px" height="40px" viewBox="0 0 177 40" enable-background="new 0 0 177 40" xml:space="preserve">
<g>
	<polygon fill="#250671" points="101.388,12.751 101.388,9.25 88.905,9.25 88.905,27.257 101.388,27.257 101.388,23.604 
		93.964,23.604 93.964,19.614 100.138,19.614 100.138,16.117 93.964,16.117 93.964,12.751 	"/>
	<polygon fill="#250671" points="123.41,23.701 115.608,23.701 115.608,9.25 110.492,9.25 110.492,27.257 123.41,27.257 	"/>
	<g>
		<path fill="#250671" d="M164.622,16.113c-3.455-0.78-4.663-0.866-4.663-2.24c0-1.279,1.705-1.673,2.695-1.673
			c1.596,0,3.472,0.369,5.385,1.356l1.394-3.315c-1.96-1.074-4.479-1.518-6.904-1.518c-4.764,0-7.956,1.932-8.09,5.696
			c-0.138,3.433,2.654,4.718,5.226,5.25c2.472,0.511,4.98,0.951,5.033,2.419c0.046,1.356-1.171,1.936-3.473,1.936
			c-2.134,0-4.112-0.685-6.139-1.531l-1.182,3.601c2.324,0.989,4.688,1.536,7.125,1.536c3.383,0,5.851-0.527,7.669-2.236
			c1.26-1.169,1.673-2.586,1.673-3.932C170.371,18.616,168.601,17.011,164.622,16.113"/>
		<polygon fill="#250671" points="81.648,12.805 81.648,9.25 65.942,9.25 65.942,12.805 71.247,12.805 71.247,27.257 76.334,27.257 
			76.334,12.805 		"/>
		<path fill="#250671" d="M140.865,9.25V20.69c0,0.896,0,1.144-0.056,1.491c-0.161,1.09-1.22,1.723-2.907,1.745
			c-1.247-0.022-2.16-0.388-2.587-1.04c-0.215-0.336-0.32-0.939-0.32-1.898V9.25h-5.304V21.66c0,1.718,0.231,2.493,1.004,3.475
			c1.283,1.607,3.78,2.447,7.221,2.447h0.109h0.077c4.604,0,6.979-1.797,7.669-3.477c0.344-0.815,0.37-1.203,0.37-2.846V9.25
			H140.865"/>
		<path fill="#250671" d="M68.341,4.319l-29.76,5.925v2.074l0.096-0.023c19.658-4.778,29.664-7.653,29.745-7.673
			c0.109-0.03,0.149-0.115,0.133-0.188C68.541,4.356,68.461,4.295,68.341,4.319"/>
		<path fill="#82BC00" d="M43.363,5.977c0.461-0.296,0.592-0.115,0.458,0.222c-0.219,0.533-1.226,3.753-8.718,9.903
			c-1.955,1.603-3.347,2.504-6.162,4.171C33.553,13.808,40.281,7.977,43.363,5.977 M44.145,3.753
			c-1.448,0.082-4.127,2.223-5.597,3.497c-5.856,5.065-10.208,9.722-13.374,14.599c-6.599,3.532-15.012,7.166-23.366,10.006
			l-0.203,0.07L0,36.251l0.917-0.353c5.315-2.028,14.184-5.826,22.226-10.061c-0.455,1.209-0.682,2.32-0.682,3.332
			c0,0.758,0.125,1.459,0.379,2.097c0.506,1.272,1.501,2.236,2.885,2.787c2.056,0.819,4.865,0.836,8.066-0.133
			c8.186-2.482,17.89-10.097,20.003-11.608l0.08-0.06c0.081-0.058,0.089-0.151,0.052-0.21c-0.045-0.07-0.143-0.085-0.222-0.039
			L53.6,22.068c-2.27,1.355-13.287,7.9-20.45,9.82c-3.648,0.98-6.429,0.446-7.478-1.022c-0.365-0.499-0.54-1.136-0.54-1.876
			c0-1.443,0.679-3.281,1.991-5.323c1.203-0.687,2.327-1.358,3.341-1.994c6.989-3.926,15.038-11.56,15.382-16.222
			c0.003-0.031,0.003-0.068,0.003-0.104c0-0.401-0.175-0.817-0.479-1.123C45.041,3.89,44.608,3.721,44.145,3.753"/>
		<polygon fill="#250671" points="38.483,10.265 7.173,16.993 5.964,20.251 38.581,12.315 38.632,12.307 38.632,10.231 		"/>
		<path fill="#250671" d="M172.953,9.218c0.95,0,1.747,0.753,1.747,1.735c0,1.002-0.797,1.752-1.747,1.752
			c-0.956,0-1.759-0.75-1.759-1.752C171.194,9.971,171.997,9.218,172.953,9.218 M172.953,12.45c0.807,0,1.431-0.642,1.431-1.496
			c0-0.837-0.624-1.479-1.431-1.479c-0.817,0-1.44,0.642-1.44,1.479C171.513,11.808,172.136,12.45,172.953,12.45 M172.271,9.941
			h0.786c0.486,0,0.715,0.193,0.715,0.582c0,0.37-0.234,0.523-0.537,0.556l0.584,0.901h-0.341l-0.556-0.877h-0.334v0.877h-0.317
			V9.941z M172.589,10.846h0.33c0.281,0,0.535-0.014,0.535-0.336c0-0.271-0.231-0.312-0.445-0.312h-0.42V10.846z"/>
	</g>
</g>
</svg>
